<svg width="1239" height="934" viewBox="0 0 1239 934" fill="none" xmlns="http://www.w3.org/2000/svg">
<g opacity="0.5">
<mask id="mask0_131_712" style="mask-type:alpha" maskUnits="userSpaceOnUse" x="0" y="0" width="1239" height="934">
<path d="M1238.08 0H0V933.28H1238.08V0Z" fill="url(#paint0_radial_131_712)"/>
</mask>
<g mask="url(#mask0_131_712)">
<g opacity="0.12">
<path d="M151.444 3.78259V934.664" stroke="#01020D" stroke-width="1.38837"/>
<path d="M213.297 3.78259V934.664" stroke="#01020D" stroke-width="1.38837"/>
<path d="M275.15 3.78259V934.664" stroke="#01020D" stroke-width="1.38837"/>
<path d="M337.002 3.78259V934.664" stroke="#01020D" stroke-width="1.38837"/>
<path d="M398.854 3.78259V934.664" stroke="#01020D" stroke-width="1.38837"/>
<path d="M460.709 3.78259V934.664" stroke="#01020D" stroke-width="1.38837"/>
<path d="M522.561 3.78259V934.664" stroke="#01020D" stroke-width="1.38837"/>
<path d="M584.414 3.78259V934.664" stroke="#01020D" stroke-width="1.38837"/>
<path d="M646.267 3.78259V934.664" stroke="#01020D" stroke-width="1.38837"/>
<path d="M708.119 3.78259V934.664" stroke="#01020D" stroke-width="1.38837"/>
<path d="M769.971 3.78259V934.664" stroke="#01020D" stroke-width="1.38837"/>
<path d="M831.823 3.78259V934.664" stroke="#01020D" stroke-width="1.38837"/>
<path d="M893.677 3.78259V934.664" stroke="#01020D" stroke-width="1.38837"/>
<path d="M955.528 3.78259V934.664" stroke="#01020D" stroke-width="1.38837"/>
<path d="M1017.38 3.78259V934.664" stroke="#01020D" stroke-width="1.38837"/>
<path d="M1079.23 3.78259V934.664" stroke="#01020D" stroke-width="1.38837"/>
<path d="M27.7402 67.6965H1265.82" stroke="#01020D" stroke-width="1.38837"/>
<path d="M27.7402 562.354H1265.82" stroke="#01020D" stroke-width="1.38837"/>
<path d="M27.7402 315.221H1265.82" stroke="#01020D" stroke-width="1.38837"/>
<path d="M27.7402 809.878H1265.82" stroke="#01020D" stroke-width="1.38837"/>
<path d="M27.7402 129.55H1265.82" stroke="#01020D" stroke-width="1.38837"/>
<path d="M27.7402 624.207H1265.82" stroke="#01020D" stroke-width="1.38837"/>
<path d="M27.7402 377.074H1265.82" stroke="#01020D" stroke-width="1.38837"/>
<path d="M27.7402 871.731H1265.82" stroke="#01020D" stroke-width="1.38837"/>
<path d="M27.7402 191.4H1265.82" stroke="#01020D" stroke-width="1.38837"/>
<path d="M27.7402 686.058H1265.82" stroke="#01020D" stroke-width="1.38837"/>
<path d="M27.7402 438.925H1265.82" stroke="#01020D" stroke-width="1.38837"/>
<path d="M27.7402 933.582H1265.82" stroke="#01020D" stroke-width="1.38837"/>
<path d="M27.7402 5.04346H1265.82" stroke="#01020D" stroke-width="1.38837"/>
<path d="M27.7402 253.254H1265.82" stroke="#01020D" stroke-width="1.38837"/>
<path d="M27.7402 747.911H1265.82" stroke="#01020D" stroke-width="1.38837"/>
<path d="M27.7402 500.778H1265.82" stroke="#01020D" stroke-width="1.38837"/>
</g>
</g>
</g>
<defs>
<radialGradient id="paint0_radial_131_712" cx="0" cy="0" r="1" gradientUnits="userSpaceOnUse" gradientTransform="translate(578.402 455.028) rotate(-135) scale(525.673 588.694)">
<stop stop-color="#D9D9D9"/>
<stop offset="1" stop-color="#D9D9D9" stop-opacity="0"/>
</radialGradient>
</defs>
</svg>
